<svg version="1.1" xmlns="http://www.w3.org/2000/svg" viewBox="0 0 489.6 489.6" xml:space="preserve">

<path fill="#2483C2" d="M244.8,0C109.8,0,0,109.8,0,244.8s109.8,244.8,244.8,244.8s244.8-109.8,244.8-244.8S379.8,0,244.8,0z
	 M244.8,469.8c-124.1,0-225-100.9-225-225s100.9-225,225-225s225,100.9,225,225S368.9,469.8,244.8,469.8z"/>
<g>
	<path fill="#2483C2" d="M239.6,163.5c-1.9-1.9-4.5-2.9-7-2.9s-5.1,1-7,2.9l-74.3,74.3c-1.9,1.9-2.9,4.4-2.9,7s1,5.1,2.9,7l74.3,74.3
		c3.9,3.9,10.1,3.9,14,0s3.9-10.1,0-14l-67.3-67.3l67.3-67.3C243.4,173.6,243.4,167.3,239.6,163.5z"/>
</g>
<g>
	<path fill="#2483C2" d="M163.6,233.1h173c5.8,0,10.5,4.7,10.5,10.5s-4.7,10.5-10.5,10.5h-173c-5.8,0-10.5-4.7-10.5-10.5
		S157.8,233.1,163.6,233.1z"/>
</g>
</svg>
