<svg version="1.1" xmlns="http://www.w3.org/2000/svg" viewBox="0 0 489.6 489.6" xml:space="preserve">

<path fill="#2483C2" d="M326.3,163.3c-4.1-4.1-10.7-4.1-14.9,0l-66.6,66.6l-66.6-66.6c-4.1-4.1-10.7-4.1-14.9,0s-4.1,10.7,0,14.9
	l66.6,66.6l-66.6,66.6c-4.1,4.1-4.1,10.7,0,14.9c2,2,4.7,3.1,7.4,3.1c2.6,0,5.4-1,7.4-3.1l66.6-66.6l66.6,66.6c2,2,4.7,3.1,7.4,3.1
	c2.7,0,5.4-1,7.4-3.1c4.1-4.1,4.1-10.7,0-14.9l-66.5-66.6l66.6-66.6C330.4,174,330.4,167.4,326.3,163.3z"/>
<path  fill="#2483C2" d="M244.8,489.6c135,0,244.8-109.8,244.8-244.8S379.8,0,244.8,0S0,109.8,0,244.8S109.8,489.6,244.8,489.6z
	 M244.8,19.8c124.1,0,225,100.9,225,225s-100.9,225-225,225s-225-100.9-225-225S120.7,19.8,244.8,19.8z"/>
</svg>
